<?xml version="1.0" standalone="no"?><!DOCTYPE svg PUBLIC "-//W3C//DTD SVG 1.1//EN" "http://www.w3.org/Graphics/SVG/1.1/DTD/svg11.dtd"><svg t="1571313782482" class="icon" viewBox="0 0 1024 1024" version="1.1" xmlns="http://www.w3.org/2000/svg" p-id="10225" xmlns:xlink="http://www.w3.org/1999/xlink" width="200" height="200"><defs><style type="text/css"></style></defs><path d="M888 137H767v-37c0-19.8-16.2-36-36-36s-36 16.2-36 36v37H327v-37c0-19.8-16.2-36-36-36s-36 16.2-36 36v37H136c-39.6 0-72 32.4-72 72v679c0 39.6 32.4 72 72 72h752c39.6 0 72-32.4 72-72V209c0-39.6-32.4-72-72-72z m0 750.9l-0.1 0.1H136.2l-0.1-0.1V414h752l-0.1 473.9z m0-545.9H136V209.1l0.1-0.1H255v36c0 19.8 16.2 36 36 36s36-16.2 36-36v-36h368v36c0 19.8 16.2 36 36 36s36-16.2 36-36v-36h120.9l0.1 0.1V342z" p-id="10226"></path><path d="M245 558h88c19.8 0 36-16.2 36-36s-16.2-36-36-36h-88c-19.8 0-36 16.2-36 36s16.2 36 36 36zM692 558h88c19.8 0 36-16.2 36-36s-16.2-36-36-36h-88c-19.8 0-36 16.2-36 36s16.2 36 36 36zM468.5 558h88c19.8 0 36-16.2 36-36s-16.2-36-36-36h-88c-19.8 0-36 16.2-36 36s16.2 36 36 36zM245 816h88c19.8 0 36-16.2 36-36s-16.2-36-36-36h-88c-19.8 0-36 16.2-36 36s16.2 36 36 36zM692 816h88c19.8 0 36-16.2 36-36s-16.2-36-36-36h-88c-19.8 0-36 16.2-36 36s16.2 36 36 36zM468.5 816h88c19.8 0 36-16.2 36-36s-16.2-36-36-36h-88c-19.8 0-36 16.2-36 36s16.2 36 36 36zM245 687h88c19.8 0 36-16.2 36-36s-16.2-36-36-36h-88c-19.8 0-36 16.2-36 36s16.2 36 36 36zM692 687h88c19.8 0 36-16.2 36-36s-16.2-36-36-36h-88c-19.8 0-36 16.2-36 36s16.2 36 36 36zM468.5 687h88c19.8 0 36-16.2 36-36s-16.2-36-36-36h-88c-19.8 0-36 16.2-36 36s16.2 36 36 36z" p-id="10227"></path></svg>